<?xml version="1.0" encoding="UTF-8"?>
<svg width="364px" height="100px" viewBox="0 0 364 100" version="1.1" xmlns="http://www.w3.org/2000/svg" xmlns:xlink="http://www.w3.org/1999/xlink">
    <title>Group Copy 3</title>
    <defs>
        <linearGradient x1="75.7190201%" y1="15.3283645%" x2="14.72%" y2="100%" id="linearGradient-1">
            <stop stop-color="#32C5FF" offset="0%"></stop>
            <stop stop-color="#B620E0" offset="100%"></stop>
        </linearGradient>
    </defs>
    <g id="Page-1" stroke="none" stroke-width="1" fill="none" fill-rule="evenodd">
        <g id="Desktop-HD-Copy-2" transform="translate(-371.000000, -789.000000)">
            <g id="Group-Copy-3" transform="translate(371.000000, 789.000000)">
                <path d="M114.620955,77.62544 C118.511232,77.62544 122.375914,77.0367797 126.215002,75.8594592 C130.054091,74.682139 133.432489,72.99294 136.350196,70.7918627 L136.350196,70.7918627 L136.350196,48.9858405 L124.986494,48.9858405 L124.986494,64.726103 C122.119975,66.2617382 118.895141,67.029556 115.311991,67.029556 C111.933594,67.029556 108.926308,66.3001292 106.290134,64.8412757 C103.65396,63.382422 101.593649,61.3477052 100.109201,58.737125 C98.6247538,56.126545 97.88253,53.15765 97.88253,49.83044 C97.88253,46.4520422 98.6247538,43.4575532 100.109201,40.8469732 C101.593649,38.236393 103.666757,36.2144732 106.328525,34.7812135 C108.990293,33.3479537 112.035969,32.631324 115.465555,32.631324 C120.891467,32.631324 125.523967,34.6532437 129.363055,38.6970837 L129.363055,38.6970837 L137.348359,31.326034 C134.737779,28.305951 131.512944,26.002498 127.673856,24.4156748 C123.834768,22.8288516 119.560583,22.03544 114.851301,22.03544 C109.220638,22.03544 104.153041,23.2255574 99.6485105,25.6057922 C95.1439803,27.986027 91.6248158,31.287643 89.0910175,35.5106402 C86.5572193,39.7336375 85.29032,44.506904 85.29032,49.83044 C85.29032,55.153976 86.5572193,59.9272425 89.0910175,64.1502397 C91.6248158,68.373237 95.1183863,71.674853 99.5717288,74.0550877 C104.025072,76.4353225 109.04148,77.62544 114.620955,77.62544 Z M189.483179,76.7040587 L189.483179,66.722429 L160.229326,66.722429 L160.229326,54.2837825 L185.1834,54.2837825 L185.1834,44.6092797 L160.229326,44.6092797 L160.229326,32.938451 L188.485016,32.938451 L188.485016,22.9568212 L147.867461,22.9568212 L147.867461,76.7040587 L189.483179,76.7040587 Z M211.67311,76.7040587 L211.67311,44.0718075 L238.469947,76.7040587 L248.681922,76.7040587 L248.681922,22.9568212 L236.396839,22.9568212 L236.396839,55.5890725 L209.676784,22.9568212 L199.388027,22.9568212 L199.388027,76.7040587 L211.67311,76.7040587 Z" id="GEN-Copy" fill="#FFFFFF" fill-rule="nonzero"></path>
                <path d="M63.5778015,22.0238095 C74.5720885,22.6304278 80.5676583,22.9683761 81.5645115,23.0376541 C83.059791,23.141571 83.421049,23.6634901 83.6533118,23.8288093 C83.8855743,23.9941284 84,24.3183295 84,24.7724798 C84,25.0752467 83.752528,25.5572685 83.257584,26.2185452 C45.4292848,73.734173 26.3682535,97.6648752 26.07449,98.010652 C25.6338448,98.529317 24.4175219,98.971866 23.6562009,99.3019385 C23.1486533,99.5219867 22.0183273,99.754674 20.265223,100 C9.936642,99.4654892 3.93969795,99.1227777 2.27439079,98.971866 C1.12674538,98.8678652 0.111888962,97.892304 0.0147338742,97.4858325 C-0.0500362327,97.2148512 0.0987406825,96.814204 0.461064765,96.2838905 L1.23517894,95.2123222 L56.2020408,26.0557727 C57.1901758,24.8909221 57.7963945,24.1996515 58.0206973,23.9819612 C58.357151,23.6554258 58.789694,23.4632254 59.3213823,23.1544456 C59.8530705,22.8456658 60.9311585,22.5179278 61.6398865,22.2966534 C62.112372,22.149137 62.7583435,22.058189 63.5778015,22.0238095 Z M65.9145608,51.7857143 L83.6899038,74.2941648 C83.9298385,74.6355628 84.0305373,75.0191173 83.9920005,75.4448285 C83.9341953,76.0833953 82.933683,76.9926775 81.4937955,76.9926775 C80.5338703,76.9926775 74.9272205,77.3205153 64.6738458,77.9761905 C63.1562555,77.9506155 62.0179055,77.7908773 61.258796,77.4969755 L60.4045265,77.1719633 C59.555705,76.840769 58.7403818,76.4556028 58.112956,75.6976275 C57.2763883,74.6869938 52.5755395,68.710456 52.5755395,68.710456 C52.5755395,68.710456 57.02188,63.0688755 65.9145608,51.7857143 Z M19.6800558,0 C20.8480575,0.0032260382 21.7469526,0.107078089 22.3767412,0.311555715 C23.3214241,0.618272298 25.4265758,1.29653594 26.2653493,2.30215362 C26.8245318,2.97256545 34.385962,12.5568548 48.9496403,31.0550213 L35.4802403,48.2142858 L0.359289318,3.74486035 C0.119763155,3.36631555 3.09050563e-11,2.98388058 3.09050563e-11,2.59755525 C3.09050563e-11,2.01806725 0.6766631,1.4444147 1.17716438,1.30742402 C1.25123456,1.28715048 1.59188465,1.13662821 2.2409334,1.08240366 C3.75743703,0.955707877 9.57047783,0.594906658 19.6800558,0 Z" id="Combined-Shape-Copy-4-Copy" fill="url(#linearGradient-1)" fill-rule="nonzero"></path>
                <path d="M291.13022,77.5 L295.522113,66.8142858 L319.158478,66.8142858 L323.550368,77.5 L340,77.5 L315.2457,22.5 L299.674448,22.5 L275,77.5 L291.13022,77.5 Z M315,55 L300,55 L307.5,37.5 L315,55 Z" id="AI-Copy" fill="#FFFFFF" fill-rule="nonzero"></path>
                <polygon id="AI-path" fill="#FFFFFF" points="363 77.5 363 43.0158607 348 43.0158607 348 77.5"></polygon>
                <circle id="Oval" fill="#32C5FF" cx="355.5" cy="30.5" r="8.5"></circle>
            </g>
        </g>
    </g>
</svg>